# xmcd
#
# Track frame offsets: 
#        182
#        12722
#        22775
#        50505
#        65547
#        75152
#        84875
#        97432
#        117545
#        138020
#        157745
#        169702
#        184390
#        200475
#        210885
#        218510
#        237382
#        249462
#        267197
#        281232
#        294685
#        306590
#        325660
#
# Disc length: 4559 seconds
#
# Revision: 2
# Processed by: cddbd v1.5.2PL0 Copyright (c) Steve Scherf et al.
# Submitted via: ExactAudioCopy v0.95b4
#
DISCID=4611cd17
DTITLE=Cows - Old Gold (1989-91)
DYEAR=1996
DGENRE=Noise
TTITLE0=Shaking
TTITLE1=Camouflage Monkey
TTITLE2=Part My Konk
TTITLE3=Bum In the Alley
TTITLE4=By the Throat
TTITLE5=I Miss Her Beer
TTITLE6=Sugar
TTITLE7=Chasin' Darla
TTITLE8=Sticky and Sweet
TTITLE9=Memorial
TTITLE10=Dirty Leg
TTITLE11=Big Mickey
TTITLE12=Preyed On
TTITLE13=Whitey In the Woodpile
TTITLE14=Cartoon Corral
TTITLE15=Little Bit
TTITLE16=Hitting the Wall
TTITLE17=I'm Missing
TTITLE18=Can't Die
TTITLE19=3-Way Lisa
TTITLE20=Good Cop
TTITLE21=Peacetika
TTITLE22=One O'Clock High
EXTD=
EXTT0=
EXTT1=
EXTT2=
EXTT3=
EXTT4=
EXTT5=
EXTT6=
EXTT7=
EXTT8=
EXTT9=
EXTT10=
EXTT11=
EXTT12=
EXTT13=
EXTT14=
EXTT15=
EXTT16=
EXTT17=
EXTT18=
EXTT19=
EXTT20=
EXTT21=
EXTT22=
PLAYORDER=
